<svg width="23" height="23" viewBox="0 0 23 23" fill="none" xmlns="http://www.w3.org/2000/svg">
<path d="M11.5006 21.5625C15.7913 21.5625 19.4542 18.876 20.901 15.0937L19.345 15.0937C18.9229 16.0139 18.3362 16.8614 17.599 17.5987C15.97 19.2278 13.8042 20.125 11.5006 20.125C9.19677 20.125 7.03073 19.2278 5.40155 17.5986C3.77232 15.9695 2.8751 13.8036 2.8751 11.5C2.8751 9.19618 3.77232 7.03023 5.40146 5.40118C7.03064 3.77213 9.19673 2.875 11.5006 2.875C13.8043 2.875 15.9701 3.77213 17.599 5.40114C18.3363 6.13839 18.923 6.98598 19.3452 7.90625L20.9011 7.90625C19.4544 4.12378 15.7914 1.4375 11.5006 1.4375C5.94313 1.4375 1.4376 5.94249 1.4376 11.5C1.4376 17.0569 5.94313 21.5625 11.5006 21.5625Z" fill="white"/>
<path d="M13.7073 8.45061L12.6909 7.43416L8.625 11.5L12.6909 15.5659L13.7074 14.5494L11.3767 12.2188L21.5625 12.2188L21.5625 10.7813L11.3767 10.7813L13.7073 8.45061Z" fill="white"/>
</svg>
