<svg width="23" height="23" viewBox="0 0 23 23" fill="none" xmlns="http://www.w3.org/2000/svg">
<path d="M11.4994 1.4375C7.20865 1.4375 3.54577 4.12401 2.09897 7.90625H3.65502C4.0771 6.98607 4.66383 6.13857 5.40104 5.40132C7.03004 3.77222 9.19581 2.875 11.4994 2.875C13.8032 2.875 15.9693 3.77222 17.5985 5.40136C19.2277 7.0305 20.1249 9.19636 20.1249 11.5C20.1249 13.8038 19.2277 15.9698 17.5985 17.5988C15.9694 19.2279 13.8033 20.125 11.4994 20.125C9.19572 20.125 7.02995 19.2279 5.40099 17.5989C4.66374 16.8616 4.07701 16.014 3.65484 15.0938H2.09888C3.54563 18.8762 7.20856 21.5625 11.4994 21.5625C17.0569 21.5625 21.5624 17.0575 21.5624 11.5C21.5624 5.94307 17.0569 1.4375 11.4994 1.4375Z" fill="white"/>
<path d="M9.29267 14.5494L10.3091 15.5658L14.375 11.5L10.3091 7.43408L9.29263 8.45057L11.6233 10.7812H1.4375V12.2187H11.6233L9.29267 14.5494Z" fill="white"/>
</svg>
